HIERARCHY
ROOT SpineBase
{
  OFFSET 0.000000 0.000000 0.000000
  CHANNELS 6 Xposition Yposition Zposition Zrotation Xrotation Yrotation
  JOINT SpineMid
  {
    OFFSET -0.000000 27.718454 0.000000
    CHANNELS 3 Zrotation Xrotation Yrotation
    JOINT SpineShoulder
    {
      OFFSET 0.266702 20.628848 -0.639461
      CHANNELS 3 Zrotation Xrotation Yrotation
      JOINT Neck
      {
        OFFSET 0.164997 6.840891 -0.528451
        CHANNELS 3 Zrotation Xrotation Yrotation
        JOINT Head
        {
          OFFSET 3.705841 13.601677 -0.887546
          CHANNELS 3 Zrotation Xrotation Yrotation
          End Site
          {
            OFFSET 0 0 0
          }
        }
      }
      JOINT ShoulderLeft
      {
        OFFSET -15.327664 -1.157971 -9.176124
        CHANNELS 3 Zrotation Xrotation Yrotation
        JOINT ElbowLeft
        {
          OFFSET -3.036047 -25.248226 -6.091614
          CHANNELS 3 Zrotation Xrotation Yrotation
          JOINT WristLeft
          {
            OFFSET 3.150598 -19.996666 -4.158748
            CHANNELS 3 Zrotation Xrotation Yrotation
            JOINT HandLeft
            {
              OFFSET 0.926677 -6.904262 0.096816
              CHANNELS 3 Zrotation Xrotation Yrotation
              JOINT HandTipLeft
              {
                OFFSET 1.035686 -6.283179 0.318546
                CHANNELS 3 Zrotation Xrotation Yrotation
                End Site
                {
                  OFFSET 0 0 0
                }
              }
              JOINT ThumbLeft
              {
                OFFSET -2.523307 -1.432590 -1.737688
                CHANNELS 3 Zrotation Xrotation Yrotation
                End Site
                {
                  OFFSET 0 0 0
                }
              }
            }
          }
        }
      }
      JOINT ShoulderRight
      {
        OFFSET 12.860127 -4.090266 8.965257
        CHANNELS 3 Zrotation Xrotation Yrotation
        JOINT ElbowRight
        {
          OFFSET 0.394841 -24.751828 4.565248
          CHANNELS 3 Zrotation Xrotation Yrotation
          JOINT WristRight
          {
            OFFSET 2.045980 -21.430317 -3.735874
            CHANNELS 3 Zrotation Xrotation Yrotation
            JOINT HandRight
            {
              OFFSET 0.795394 -2.715994 -2.513872
              CHANNELS 3 Zrotation Xrotation Yrotation
              JOINT HandTipRight
              {
                OFFSET 0.491524 -4.774147 -0.592570
                CHANNELS 3 Zrotation Xrotation Yrotation
                End Site
                {
                  OFFSET 0 0 0
                }
              }
              JOINT ThumbRight
              {
                OFFSET -2.234134 -0.495798 -2.967450
                CHANNELS 3 Zrotation Xrotation Yrotation
                End Site
                {
                  OFFSET 0 0 0
                }
              }
            }
          }
        }
      }
    }
  }
  JOINT HipLeft
  {
    OFFSET -5.071890 1.037023 -6.428997
    CHANNELS 3 Zrotation Xrotation Yrotation
    JOINT KneeLeft
    {
      OFFSET -8.715609 -24.059479 -3.491630
      CHANNELS 3 Zrotation Xrotation Yrotation
      JOINT AnkleLeft
      {
        OFFSET -6.410171 -37.365210 5.813591
        CHANNELS 3 Zrotation Xrotation Yrotation
        JOINT FootLeft
        {
          OFFSET -1.270712 -7.900991 -5.166658
          CHANNELS 3 Zrotation Xrotation Yrotation
          End Site
          {
            OFFSET 0 0 0
          }
        }
      }
    }
  }
  JOINT HipRight
  {
    OFFSET 6.055604 0.515104 0.183224
    CHANNELS 3 Zrotation Xrotation Yrotation
    JOINT KneeRight
    {
      OFFSET -4.730044 -24.912969 3.632731
      CHANNELS 3 Zrotation Xrotation Yrotation
      JOINT AnkleRight
      {
        OFFSET -7.988988 -37.192488 5.094527
        CHANNELS 3 Zrotation Xrotation Yrotation
        JOINT FootRight
        {
          OFFSET 6.292923 -3.723529 -10.819993
          CHANNELS 3 Zrotation Xrotation Yrotation
          End Site
          {
            OFFSET 0 0 0
          }
        }
      }
    }
  }
}
MOTION
Frames: 5
Frame Time: 0.033333
-52.848892 72.742469 346.458643 0.000000 0.000000 -30.719788 -0.000000 0.000000 30.719788 -0.000000 0.000000 0.000000 -0.000000 0.000000 0.000000 0.000000 0.000000 0.000000 -0.000000 0.000000 0.000000 -0.000000 0.000000 0.000000 -0.000000 0.000000 0.000000 -0.000000 0.000000 0.000000 0.000000 0.000000 0.000000 0.000000 0.000000 0.000000 -0.000000 0.000000 0.000000 -0.000000 0.000000 0.000000 -0.000000 0.000000 0.000000 -0.000000 0.000000 0.000000 0.000000 0.000000 0.000000 0.000000 0.000000 0.000000 -0.000000 0.000000 30.719788 -0.000000 0.000000 0.000000 -0.000000 0.000000 0.000000 0.000000 0.000000 0.000000 -0.000000 0.000000 30.719788 -0.000000 0.000000 0.000000 -0.000000 0.000000 0.000000 0.000000 0.000000 0.000000
-53.011475 72.788044 346.273235 -0.323646 0.411243 -31.071377 0.489458 -0.185197 31.073330 -0.000000 0.000000 0.000000 -0.000000 0.000000 0.000000 0.000000 0.000000 0.000000 -0.000000 0.000000 0.000000 -0.298169 -0.759584 -0.059751 0.297402 0.759884 0.055803 -0.000000 0.000000 0.000000 0.000000 0.000000 0.000000 0.000000 0.000000 0.000000 0.374131 -2.304268 0.039618 -1.389695 5.301607 0.504235 1.539745 -10.422641 -3.267739 -0.264384 11.281304 3.129191 0.000000 0.000000 0.000000 0.000000 0.000000 0.000000 0.489458 -0.185197 31.073330 -0.000000 0.000000 0.000000 4.980281 6.305518 -4.417932 0.000000 0.000000 0.000000 0.489458 -0.185197 31.073330 -0.000000 0.000000 0.000000 -1.424733 -1.914052 0.947195 0.000000 0.000000 0.000000
-53.157437 72.829086 346.101704 -0.612700 0.739937 -31.357168 0.908260 -0.312984 31.363605 -0.000000 0.000000 0.000000 -0.117840 -0.817640 0.214083 0.000000 0.000000 0.000000 0.797810 0.909928 -0.307912 -1.347497 -2.316711 0.175458 1.430362 1.163332 0.058012 -0.870992 0.238468 0.021628 0.000000 0.000000 0.000000 0.000000 0.000000 0.000000 0.653581 -4.157740 0.077394 -1.937459 9.491536 0.850015 1.695606 -17.197714 -5.037191 -0.598819 18.764895 4.897917 0.000000 0.000000 0.000000 0.000000 0.000000 0.000000 2.349844 -0.653590 31.601112 -1.049538 1.045283 -0.215772 9.834976 11.578966 -8.833507 0.000000 0.000000 0.000000 0.908260 -0.312984 31.363605 -0.000000 0.000000 0.000000 -2.713416 -3.578227 2.015586 0.000000 0.000000 0.000000
-53.286779 72.865594 345.944050 -0.866797 0.985493 -31.580695 1.254545 -0.385487 31.592370 -0.000000 0.000000 0.000000 -0.140905 -0.960922 0.251216 0.000000 0.000000 0.000000 1.067271 1.186153 -0.410625 -1.839373 -3.128636 0.219202 2.139271 1.669781 0.067623 -1.350133 0.264055 0.019651 0.000000 0.000000 0.000000 0.000000 0.000000 0.000000 0.842686 -5.592046 0.106339 -1.570459 12.587517 0.878495 0.799679 -20.852905 -5.648146 -0.583380 23.263588 5.559559 0.000000 0.000000 0.000000 0.000000 0.000000 0.000000 3.300519 -0.870010 31.938778 -1.480478 1.492958 -0.304699 14.293009 15.757526 -12.962814 0.000000 0.000000 0.000000 2.331494 -0.613466 31.862189 -0.794408 0.762008 -0.255147 -3.808351 -4.895480 3.206946 0.000000 0.000000 0.000000
-53.399499 72.897568 345.800274 -1.085632 1.147480 -31.744719 1.526967 -0.404426 31.760981 -0.000000 0.000000 0.000000 -0.140817 -0.928124 0.242339 0.000000 0.000000 0.000000 1.249817 1.344204 -0.477134 -2.216427 -3.718812 0.238968 2.850558 2.136560 0.067816 -1.860811 0.226694 0.008030 0.000000 0.000000 0.000000 0.000000 0.000000 0.000000 0.943575 -6.630112 0.121498 -0.196696 14.578297 0.478087 -1.062094 -21.828331 -5.278940 -0.095381 25.405111 5.281456 0.000000 0.000000 0.000000 0.000000 0.000000 0.000000 4.098355 -1.019656 32.206157 -1.848942 1.890004 -0.382715 18.172658 18.955271 -16.607467 0.000000 0.000000 0.000000 2.924240 -0.732022 32.115596 -1.009481 1.020073 -0.331770 -4.661696 -5.778973 4.513956 0.000000 0.000000 0.000000
